PathFileType	4	(X/Y/Z)	Patient4_TMGait_0pt8_01_right_21.trc.trc
DataRate	CameraRate	NumFrames	NumMarkers	Units	OrigDataRate	OrigDataStartFrame	OrigNumFrames
88.607594936709	88.607594936709	4	33	mm	88.607594936709	89	       141
Frame#	Time	Sacral			L.Shoulder			Chest			R.Shoulder			Neck			R.ASIS			L.ASIS			R.Thigh.Superior			R.Thigh.Lateral			R.Thigh.Inferior			R.Patella			L.Thigh.Superior			L.Thigh.Lateral			L.Thigh.Inferior			L.Patella			L.Shank.Superior			L.Shank.Lateral			L.Shank.Inferior			R.Shank.Superior			R.Shank.Lateral			R.Shank.Inferior			R.Heel			R.Midfoot.Superior			R.Midfoot.Lateral			R.Toe			L.Heel			L.Midfoot.Lateral			L.Midfoot.Superior			L.Toe			L.Elbow			L.Wrist			R.Elbow			R.Wrist			
		X1	Y1	Z1	X2	Y2	Z2	X3	Y3	Z3	X4	Y4	Z4	X5	Y5	Z5	X6	Y6	Z6	X7	Y7	Z7	X8	Y8	Z8	X9	Y9	Z9	X10	Y10	Z10	X11	Y11	Z11	X12	Y12	Z12	X13	Y13	Z13	X14	Y14	Z14	X15	Y15	Z15	X16	Y16	Z16	X17	Y17	Z17	X18	Y18	Z18	X19	Y19	Z19	X20	Y20	Z20	X21	Y21	Z21	X22	Y22	Z22	X23	Y23	Z23	X24	Y24	Z24	X25	Y25	Z25	X26	Y26	Z26	X27	Y27	Z27	X28	Y28	Z28	X29	Y29	Z29	X30	Y30	Z30	X31	Y31	Z31	X32	Y32	Z32	X33	Y33	Z33	

89	24.363142857143	910.484396039384	1004.918785826236	451.142016921072	1076.513187509171	1427.825628856684	260.678327715372	1188.817869629277	1359.548266807301	416.663546853667	1115.171215724438	1436.099119419210	594.272770849008	1068.492775956783	1490.119617796323	416.102055447866	1137.069056299892	933.261565263830	559.374318450751	1116.920855721770	956.008405645826	286.498116832212	1172.234452571946	728.158913528693	537.226130875899	1090.455859713720	620.005159174893	603.112204438637	1170.406619615555	558.689876334722	529.468244397095	1155.127615393993	447.472185065050	549.212316475608	1184.088100396472	760.885651303912	308.632640150119	1105.655023507340	635.515534428313	255.542781561035	1205.508247135710	569.479494389761	311.270669107215	1215.365365421696	500.752570548845	320.114090222325	1195.256098963089	425.844525683252	315.813919076670	1113.431734639495	301.233298421468	275.433706920525	1184.323012941266	198.634490503060	344.139978903081	1069.647632019901	386.838699564805	551.506832948974	943.247948425441	362.419136632744	610.457508539216	916.442388479647	257.473061881974	557.848954177318	707.868503006427	213.733746821470	521.891587548240	871.977168121615	148.121985331521	572.528060011333	760.263357459206	153.560185229162	599.429037729460	928.060189999121	37.813413685412	604.127560598714	1076.117881919031	38.319022359199	403.278366200106	1141.543785544243	35.915375568727	314.816160481422	1225.184173950960	98.987908303634	333.291469078090	1350.941242895706	51.156528924568	293.622196016614	970.512997421568	1088.277390844314	166.954604838525	955.879114246680	829.637823725424	167.355318120026	1150.964634955145	1092.499104379601	716.084929807603	1395.242219439661	1107.282981800099	663.344269748680	
90	24.374428571429	909.254865081625	1005.736778927755	448.377793548345	1077.084980993162	1429.013806802271	258.538381642968	1187.862073318879	1360.855403910740	415.629457696688	1112.415910589839	1437.280815916894	592.599458760695	1067.646905569701	1491.397160038827	413.928156204553	1135.817382447320	934.646662070162	557.757556838793	1116.505342863786	957.409429394283	284.673477409661	1177.436875918844	732.389304960750	535.826757202447	1099.568461820824	622.177216778602	602.348944892552	1181.803427733583	562.778461095184	529.099164374703	1168.949147854175	450.339749253646	549.257004210625	1181.272767956873	760.027118057648	305.161496886675	1100.609816028615	635.793312762566	253.786120979098	1199.808987047811	568.594652167319	309.042356730015	1208.686728401528	499.993000030219	318.098658035054	1188.105966773306	425.344025008504	314.127537628614	1105.152768278201	301.157510594741	274.593553736725	1175.749278282851	198.369655123482	343.319577414010	1082.150578160286	389.732914522143	550.829726689345	954.529886750068	368.998486461798	609.122260809481	925.153176916794	264.768071806899	556.714848077064	715.807592241131	228.213895361553	520.023861782029	877.475043556016	156.102652268320	570.736386020251	765.734784843369	165.590341028857	597.483957698965	929.396289274201	41.372210101525	602.079016507462	1066.954749933880	38.292010628587	403.173546909968	1132.377603452674	35.779909421274	314.723957251584	1216.075869312862	98.879176917114	333.062797947286	1341.829409005199	50.955623898303	293.548576476894	979.091646705220	1086.833016689782	162.464962754507	975.151596005875	827.545100006773	162.612808091828	1138.348259109741	1092.527357655114	714.469735681241	1384.113647731382	1090.147583514264	664.509438663721	
91	24.385714285714	907.940640500202	1006.448134739538	445.746558052659	1077.499854719066	1430.076936493612	256.553597883483	1186.739416258076	1362.068068440699	414.746515025928	1109.479195074108	1438.290593285607	591.098647217780	1066.653375511927	1492.576638423642	411.915509872371	1134.580330237573	935.945677880656	556.192125783801	1115.984170802622	958.745372670959	282.913507131005	1182.351528599352	736.837641538499	534.448266614357	1108.417110088884	624.801842843118	601.713677273850	1192.731846136595	567.382066006800	528.797837083505	1182.504807223467	453.874068932504	549.339079393073	1178.260448185235	759.242892481103	302.150764456284	1095.624815283400	636.159408046687	252.071972451943	1194.027335961511	567.771189484801	306.978910892844	1201.911299096199	499.254653403996	316.165646762002	1180.877245790876	424.878963713517	312.518122109963	1096.855840683164	301.117949948023	273.769220713596	1167.184987646062	198.138160592516	342.505116797337	1094.719340354734	393.067775507583	550.285741853713	966.122331694207	375.349850133829	607.945445104739	934.702180096876	271.766852637334	555.634393613074	724.905452595981	240.965926143897	518.306548858499	884.400191854728	163.700960902035	568.801540723997	772.817514206617	176.341612691631	595.573033557829	933.043233847263	45.631129245421	599.804303844942	1057.809936341974	38.292884869801	403.056433838870	1123.236963314752	35.654129971885	314.632017936481	1207.010752545233	98.772265090193	332.826134329818	1332.749931267814	50.706411245920	293.487203888971	988.183334751981	1085.379070636754	158.018785363113	995.044445147491	825.905082537605	157.879604377616	1125.828528535746	1092.693997249653	712.827668297835	1371.933799958427	1072.225527212702	666.027410080025	
92	24.397000000000	906.589778538305	1007.074768816887	443.254585629258	1077.743256876494	1431.039682873293	254.739781533244	1185.469555853562	1363.200105101485	414.000486654733	1106.419619350576	1439.148848839285	589.760247017695	1065.520481908929	1493.667845418075	410.076212788485	1133.381335502489	937.186088776252	554.638680408317	1115.374940474532	960.032408120619	281.194047699334	1186.934584894696	741.464146519917	533.045905958751	1116.944820632383	627.835404292596	601.176816285146	1203.134357812368	572.440969209992	528.536543879026	1195.705705093813	458.014173388834	549.472132075844	1175.130436589981	758.564055085339	299.607354757134	1090.706350876601	636.608854926686	250.419056371799	1188.193426448874	567.007759251900	305.069970659958	1195.079615546977	498.547981729882	314.332864770405	1173.604950414263	424.456104019888	310.997688156443	1088.557576306177	301.132365148495	272.986262629412	1158.641038273048	197.944609158078	341.705285802178	1107.268728346345	396.791893974192	549.902282901995	977.926181232248	381.322840829009	606.954755419517	945.042528426396	278.271596192682	554.658091436465	735.042009584542	251.693145528048	516.781543972063	892.760135215160	170.636685658087	566.857961872181	781.430885798621	185.515179538903	593.773198916998	939.043872490205	50.301339476194	597.467169867275	1048.686134560545	38.321275201106	402.926746990715	1114.123536524181	35.544803430307	314.539137192782	1197.981049717281	98.676851639686	332.581032076326	1323.695400944426	50.441610249071	293.429112489296	997.812383146807	1084.005807886780	153.650167442567	1015.459483095950	824.823030714890	153.190419947523	1113.468390769661	1092.986519274038	711.148691482726	1358.567726487748	1053.685050240956	667.888519454531	
